# xmcd
#
# Track frame offsets: 
#        150
#        18283
#        40421
#        59421
#        89464
#        95634
#        108026
#        122743
#        134874
#        151687
#        158544
#        174993
#        194473
#        205481
#        223059
#
# Disc length: 3136 seconds
#
# Revision: 0
# Processed by: cddbd v1.5.2PL0 Copyright (c) Steve Scherf et al.
# Submitted via: ExactAudioCopyFreeDBPlugin 1.0
#
DISCID=d00c3e0f
DTITLE=Butch Cage and Willie B. Thomas - Old Time Black Southern String 
DTITLE=Band Music
DYEAR=2006
DGENRE=Blues
TTITLE0=Bugle Call Blues
TTITLE1=Some Day Baby
TTITLE2=Mean Old Frisco
TTITLE3=The Piano Blues
TTITLE4=Hen Cackle
TTITLE5=The Dirty Dozen
TTITLE6=Rock Me Mama
TTITLE7=It Ain't Gonna Rain No More
TTITLE8=Easy Rider Blues
TTITLE9=Whoa Mule
TTITLE10=I Had A Dream Last Night (All I Had Was Gone)
TTITLE11=Careless Love Blues
TTITLE12=Sneaky Ways
TTITLE13=Since I Layed My Burden Down
TTITLE14=You've Gotta Move
EXTD=
EXTT0=
EXTT1=
EXTT2=
EXTT3=
EXTT4=
EXTT5=
EXTT6=
EXTT7=
EXTT8=
EXTT9=
EXTT10=
EXTT11=
EXTT12=
EXTT13=
EXTT14=
PLAYORDER=
